<?xml version="1.0" standalone="no"?>
<!DOCTYPE svg PUBLIC "-//W3C//DTD SVG 20010904//EN"
 "http://www.w3.org/TR/2001/REC-SVG-20010904/DTD/svg10.dtd">
<svg version="1.0" xmlns="http://www.w3.org/2000/svg"
 width="260.000000pt" height="260.000000pt" viewBox="0 0 260.000000 260.000000"
 preserveAspectRatio="xMidYMid meet">
<metadata>
Created by potrace 1.14, written by Peter Selinger 2001-2017
</metadata>
<g transform="translate(0.000000,260.000000) scale(0.100000,-0.100000)"
fill="#000000" stroke="none">
<path d="M1155 2559 c-308 -42 -565 -173 -770 -390 -163 -174 -268 -378 -321
-624 -24 -112 -24 -370 0 -480 58 -267 179 -489 360 -663 184 -177 390 -286
639 -339 113 -24 371 -24 484 0 248 53 447 156 624 325 196 186 319 407 376
675 24 113 24 371 0 484 -56 261 -182 490 -368 668 -180 170 -399 285 -631
330 -103 20 -300 27 -393 14z m805 -371 c77 -40 84 -66 88 -323 l4 -220 58 3
c43 3 68 -1 98 -17 175 -89 93 -328 -107 -309 l-49 5 -4 -181 c-3 -157 -6
-186 -23 -221 -31 -61 -74 -85 -154 -85 -87 0 -129 21 -158 80 l-23 44 0 560
c0 544 1 561 21 602 38 80 156 109 249 62z m-892 2 c124 -16 202 -43 256 -91
87 -77 124 -190 113 -353 -14 -207 -98 -311 -279 -347 l-58 -12 0 -62 0 -63
178 -4 c191 -5 237 -15 265 -60 47 -71 24 -173 -46 -211 -42 -22 -44 -22 -567
-22 -469 0 -528 2 -555 16 -54 30 -69 55 -73 122 -3 52 0 66 18 90 43 54 70
61 253 65 l167 4 0 64 c0 61 -1 64 -27 70 -128 29 -187 57 -236 115 -20 23
-43 62 -53 88 -21 60 -30 248 -15 322 25 120 108 210 227 245 111 32 287 42
432 24z m-345 -1384 c70 -25 105 -74 116 -160 10 -81 11 -81 366 -81 326 0
400 8 564 61 91 29 128 28 182 -9 100 -67 95 -213 -9 -274 -171 -100 -795
-155 -1092 -96 -212 42 -329 168 -338 363 -3 70 0 91 16 120 23 42 58 69 103
80 47 11 49 11 92 -4z"/>
<path d="M814 1916 c-37 -16 -54 -57 -54 -126 0 -110 34 -140 159 -140 101 0
126 11 147 67 30 79 4 182 -52 203 -37 14 -164 11 -200 -4z"/>
</g>
</svg>
